<svg width="190" height="39" viewBox="0 0 190 39" fill="none" xmlns="http://www.w3.org/2000/svg">
    <path d="M17.082 18.8086V13.2031C17.082 12.4349 16.9323 11.7122 16.6328 11.0352C16.3464 10.3451 15.9492 9.74609 15.4414 9.23828C14.9336 8.73047 14.3346 8.33333 13.6445 8.04688C12.9674 7.7474 12.2448 7.59766 11.4766 7.59766C10.7083 7.59766 9.97917 7.7474 9.28906 8.04688C8.61198 8.33333 8.01953 8.73047 7.51172 9.23828C7.00391 9.74609 6.60026 10.3451 6.30078 11.0352C6.01432 11.7122 5.87109 12.4349 5.87109 13.2031V18.8086H17.082ZM22.6875 30H17.082V24.3945H5.87109V30H0.285156V13.2031C0.285156 11.6536 0.578125 10.2018 1.16406 8.84766C1.75 7.48047 2.54427 6.28906 3.54688 5.27344C4.5625 4.25781 5.7474 3.45703 7.10156 2.87109C8.46875 2.28516 9.92708 1.99219 11.4766 1.99219C13.026 1.99219 14.4779 2.28516 15.832 2.87109C17.1992 3.45703 18.3906 4.25781 19.4062 5.27344C20.4219 6.28906 21.2227 7.48047 21.8086 8.84766C22.3945 10.2018 22.6875 11.6536 22.6875 13.2031V30ZM53.1953 22.4414C53.1953 23.5352 52.987 24.5703 52.5703 25.5469C52.1536 26.5104 51.5807 27.3503 50.8516 28.0664C50.1354 28.7826 49.2891 29.349 48.3125 29.7656C47.349 30.1823 46.3138 30.3906 45.207 30.3906C44.2174 30.3906 43.2669 30.2214 42.3555 29.8828C41.444 29.5312 40.6172 29.0234 39.875 28.3594C39.1458 29.0234 38.3255 29.5312 37.4141 29.8828C36.5156 30.2214 35.5651 30.3906 34.5625 30.3906C33.4557 30.3906 32.4206 30.1823 31.457 29.7656C30.4935 29.349 29.6471 28.7826 28.918 28.0664C28.2018 27.3503 27.6354 26.5104 27.2188 25.5469C26.8021 24.5703 26.5938 23.5352 26.5938 22.4414V9.12109H31.9258V22.4414C31.9258 22.806 31.9909 23.151 32.1211 23.4766C32.2643 23.7891 32.4531 24.069 32.6875 24.3164C32.9349 24.5508 33.2148 24.7396 33.5273 24.8828C33.8529 25.013 34.1979 25.0781 34.5625 25.0781C34.9271 25.0781 35.2721 25.013 35.5977 24.8828C35.9232 24.7396 36.2096 24.5508 36.457 24.3164C36.7044 24.069 36.8932 23.7891 37.0234 23.4766C37.1667 23.151 37.2383 22.806 37.2383 22.4414V9.12109H42.5508V22.4414C42.5508 22.806 42.6224 23.151 42.7656 23.4766C42.9089 23.7891 43.0977 24.069 43.332 24.3164C43.5794 24.5508 43.8594 24.7396 44.1719 24.8828C44.4974 25.013 44.8424 25.0781 45.207 25.0781C45.5716 25.0781 45.9167 25.013 46.2422 24.8828C46.5677 24.7396 46.8477 24.5508 47.082 24.3164C47.3294 24.069 47.5247 23.7891 47.668 23.4766C47.8112 23.151 47.8828 22.806 47.8828 22.4414V9.12109H53.1953V22.4414ZM77.3164 30H76.0273L73.957 27.1289C73.4492 27.5846 72.9089 28.0143 72.3359 28.418C71.776 28.8086 71.1836 29.1536 70.5586 29.4531C69.9336 29.7396 69.2891 29.9674 68.625 30.1367C67.974 30.306 67.3099 30.3906 66.6328 30.3906C65.1615 30.3906 63.7747 30.1432 62.4727 29.6484C61.1836 29.1536 60.0508 28.4375 59.0742 27.5C58.1107 26.5495 57.349 25.3906 56.7891 24.0234C56.2292 22.6562 55.9492 21.1003 55.9492 19.3555C55.9492 17.7279 56.2292 16.237 56.7891 14.8828C57.349 13.5156 58.1107 12.3438 59.0742 11.3672C60.0508 10.3906 61.1836 9.63542 62.4727 9.10156C63.7747 8.55469 65.1615 8.28125 66.6328 8.28125C67.3099 8.28125 67.9805 8.36589 68.6445 8.53516C69.3086 8.70443 69.9531 8.9388 70.5781 9.23828C71.2031 9.53776 71.7956 9.88932 72.3555 10.293C72.9284 10.6966 73.4622 11.1328 73.957 11.6016L76.0273 9.12109H77.3164V30ZM71.9453 19.3555C71.9453 18.6263 71.8021 17.9232 71.5156 17.2461C71.2422 16.556 70.8646 15.9505 70.3828 15.4297C69.901 14.8958 69.3346 14.4727 68.6836 14.1602C68.0456 13.8346 67.362 13.6719 66.6328 13.6719C65.9036 13.6719 65.2135 13.7956 64.5625 14.043C63.9245 14.2904 63.3646 14.6549 62.8828 15.1367C62.4141 15.6185 62.043 16.2174 61.7695 16.9336C61.4961 17.6367 61.3594 18.444 61.3594 19.3555C61.3594 20.2669 61.4961 21.0807 61.7695 21.7969C62.043 22.5 62.4141 23.0924 62.8828 23.5742C63.3646 24.056 63.9245 24.4206 64.5625 24.668C65.2135 24.9154 65.9036 25.0391 66.6328 25.0391C67.362 25.0391 68.0456 24.8828 68.6836 24.5703C69.3346 24.2448 69.901 23.8216 70.3828 23.3008C70.8646 22.7669 71.2422 22.1615 71.5156 21.4844C71.8021 20.7943 71.9453 20.0846 71.9453 19.3555ZM86.4375 37.9688V32.5977L89.4062 32.6367C89.9271 32.6367 90.4284 32.5521 90.9102 32.3828C91.3919 32.2135 91.8346 31.9792 92.2383 31.6797C92.6549 31.3802 93.0195 31.0221 93.332 30.6055C93.6445 30.2018 93.8984 29.7591 94.0938 29.2773C93.5078 29.5247 92.9089 29.7721 92.2969 30.0195C91.6979 30.2669 91.0924 30.3906 90.4805 30.3906C89.1914 30.3906 87.9805 30.1628 86.8477 29.707C85.7148 29.2513 84.7188 28.6068 83.8594 27.7734C83.013 26.9271 82.3424 25.9049 81.8477 24.707C81.3659 23.4961 81.125 22.1419 81.125 20.6445V9.08203H86.4375V20.6445C86.4375 21.3867 86.5417 22.0378 86.75 22.5977C86.9714 23.1445 87.2643 23.6068 87.6289 23.9844C87.9935 24.349 88.4167 24.6224 88.8984 24.8047C89.3932 24.987 89.9206 25.0781 90.4805 25.0781C91.0273 25.0781 91.5417 24.9544 92.0234 24.707C92.5182 24.4466 92.9479 24.1081 93.3125 23.6914C93.6771 23.2747 93.9635 22.806 94.1719 22.2852C94.3802 21.7513 94.4844 21.2044 94.4844 20.6445V9.08203H99.8555V27.3633C99.8424 28.8346 99.556 30.2148 98.9961 31.5039C98.4362 32.793 97.668 33.9193 96.6914 34.8828C95.7279 35.8464 94.6016 36.6081 93.3125 37.168C92.0234 37.7279 90.6432 38.0078 89.1719 38.0078L86.4375 37.9688ZM126.867 27.1289C125.565 28.2487 124.107 29.1081 122.492 29.707C120.878 30.306 119.204 30.6055 117.473 30.6055C116.145 30.6055 114.862 30.4297 113.625 30.0781C112.401 29.7396 111.249 29.2578 110.168 28.6328C109.1 27.9948 108.124 27.2331 107.238 26.3477C106.353 25.4622 105.591 24.4857 104.953 23.418C104.328 22.3372 103.84 21.1849 103.488 19.9609C103.15 18.724 102.98 17.4414 102.98 16.1133C102.98 14.7852 103.15 13.5026 103.488 12.2656C103.84 11.0286 104.328 9.8763 104.953 8.80859C105.591 7.72786 106.353 6.74479 107.238 5.85938C108.124 4.97396 109.1 4.21875 110.168 3.59375C111.249 2.95573 112.401 2.46745 113.625 2.12891C114.862 1.77734 116.145 1.60156 117.473 1.60156C119.204 1.60156 120.878 1.90104 122.492 2.5C124.107 3.08594 125.565 3.94531 126.867 5.07812L123.898 9.96094C123.078 9.07552 122.108 8.39844 120.988 7.92969C119.868 7.44792 118.697 7.20703 117.473 7.20703C116.236 7.20703 115.077 7.44141 113.996 7.91016C112.915 8.37891 111.971 9.01693 111.164 9.82422C110.357 10.6185 109.719 11.5625 109.25 12.6562C108.781 13.737 108.547 14.8893 108.547 16.1133C108.547 17.3372 108.781 18.4896 109.25 19.5703C109.719 20.638 110.357 21.5755 111.164 22.3828C111.971 23.1901 112.915 23.8281 113.996 24.2969C115.077 24.7656 116.236 25 117.473 25C118.697 25 119.868 24.7656 120.988 24.2969C122.108 23.8151 123.078 23.1315 123.898 22.2461L126.867 27.1289ZM149.074 30H147.785L145.715 27.1289C145.207 27.5846 144.667 28.0143 144.094 28.418C143.534 28.8086 142.941 29.1536 142.316 29.4531C141.691 29.7396 141.047 29.9674 140.383 30.1367C139.732 30.306 139.068 30.3906 138.391 30.3906C136.919 30.3906 135.533 30.1432 134.23 29.6484C132.941 29.1536 131.809 28.4375 130.832 27.5C129.868 26.5495 129.107 25.3906 128.547 24.0234C127.987 22.6562 127.707 21.1003 127.707 19.3555C127.707 17.7279 127.987 16.237 128.547 14.8828C129.107 13.5156 129.868 12.3438 130.832 11.3672C131.809 10.3906 132.941 9.63542 134.23 9.10156C135.533 8.55469 136.919 8.28125 138.391 8.28125C139.068 8.28125 139.738 8.36589 140.402 8.53516C141.066 8.70443 141.711 8.9388 142.336 9.23828C142.961 9.53776 143.553 9.88932 144.113 10.293C144.686 10.6966 145.22 11.1328 145.715 11.6016L147.785 9.12109H149.074V30ZM143.703 19.3555C143.703 18.6263 143.56 17.9232 143.273 17.2461C143 16.556 142.622 15.9505 142.141 15.4297C141.659 14.8958 141.092 14.4727 140.441 14.1602C139.803 13.8346 139.12 13.6719 138.391 13.6719C137.661 13.6719 136.971 13.7956 136.32 14.043C135.682 14.2904 135.122 14.6549 134.641 15.1367C134.172 15.6185 133.801 16.2174 133.527 16.9336C133.254 17.6367 133.117 18.444 133.117 19.3555C133.117 20.2669 133.254 21.0807 133.527 21.7969C133.801 22.5 134.172 23.0924 134.641 23.5742C135.122 24.056 135.682 24.4206 136.32 24.668C136.971 24.9154 137.661 25.0391 138.391 25.0391C139.12 25.0391 139.803 24.8828 140.441 24.5703C141.092 24.2448 141.659 23.8216 142.141 23.3008C142.622 22.7669 143 22.1615 143.273 21.4844C143.56 20.7943 143.703 20.0846 143.703 19.3555ZM158.488 30H153.156V9.08203H154.445L156.203 11.5625C157.062 10.7812 158.039 10.1823 159.133 9.76562C160.227 9.33594 161.359 9.12109 162.531 9.12109H167.238V14.4336H162.531C161.971 14.4336 161.444 14.5378 160.949 14.7461C160.454 14.9544 160.025 15.2409 159.66 15.6055C159.296 15.9701 159.009 16.3997 158.801 16.8945C158.592 17.3893 158.488 17.9167 158.488 18.4766V30ZM189.543 30H188.254L186.184 27.1289C185.676 27.5846 185.135 28.0143 184.562 28.418C184.003 28.8086 183.41 29.1536 182.785 29.4531C182.16 29.7396 181.516 29.9674 180.852 30.1367C180.201 30.306 179.536 30.3906 178.859 30.3906C177.388 30.3906 176.001 30.1172 174.699 29.5703C173.41 29.0104 172.277 28.2422 171.301 27.2656C170.337 26.276 169.576 25.1107 169.016 23.7695C168.456 22.4154 168.176 20.944 168.176 19.3555C168.176 17.7799 168.456 16.3151 169.016 14.9609C169.576 13.6068 170.337 12.4349 171.301 11.4453C172.277 10.4557 173.41 9.68099 174.699 9.12109C176.001 8.5612 177.388 8.28125 178.859 8.28125C179.328 8.28125 179.81 8.32031 180.305 8.39844C180.812 8.47656 181.301 8.60677 181.77 8.78906C182.251 8.95833 182.701 9.1862 183.117 9.47266C183.534 9.75911 183.885 10.1107 184.172 10.5273V0.761719H189.543V30ZM184.172 19.3555C184.172 18.6263 184.029 17.9232 183.742 17.2461C183.469 16.556 183.091 15.9505 182.609 15.4297C182.128 14.8958 181.561 14.4727 180.91 14.1602C180.272 13.8346 179.589 13.6719 178.859 13.6719C178.13 13.6719 177.44 13.8021 176.789 14.0625C176.151 14.3229 175.591 14.7005 175.109 15.1953C174.641 15.6771 174.27 16.2695 173.996 16.9727C173.723 17.6758 173.586 18.4701 173.586 19.3555C173.586 20.1237 173.723 20.8529 173.996 21.543C174.27 22.2331 174.641 22.8385 175.109 23.3594C175.591 23.8802 176.151 24.2904 176.789 24.5898C177.44 24.8893 178.13 25.0391 178.859 25.0391C179.589 25.0391 180.272 24.8828 180.91 24.5703C181.561 24.2448 182.128 23.8216 182.609 23.3008C183.091 22.7669 183.469 22.1615 183.742 21.4844C184.029 20.7943 184.172 20.0846 184.172 19.3555Z"
          fill="#7371FC"/>
</svg>
